<svg id="Layer_1" data-name="Layer 1" xmlns="http://www.w3.org/2000/svg" viewBox="0 0 141.98 106.85"><defs><style>.cls-1,.cls-2,.cls-3{stroke:#000;stroke-miterlimit:10;}.cls-2,.cls-3{fill:none;}.cls-2{stroke-width:3px;}.cls-3{stroke-linecap:round;stroke-width:2px;}.cls-4{font-size:14.74px;font-family:Lato-Medium, Lato;font-weight:500;letter-spacing:0.5em;}.cls-5{letter-spacing:0.47em;}</style></defs><polyline points="83.01 1.37 58.22 54.04 56.35 54.25 83.01 1.37"/><path d="M83.05,1.39,58.58,54.21l-.09.2-.23,0-1.86.22-.74.08.33-.67L62.58,40.8l6.66-13.21L76,14.43Q79.46,7.88,83,1.35l.09,0Q79.9,8.09,76.66,14.75L70.13,28,63.46,41.25,56.71,54.43l-.4-.58,1.87-.2-.31.23L83,1.35Z"/><polyline points="141.98 54.08 55.61 55.55 55.27 54.74 141.98 54.08"/><polygon points="141.98 54.13 55.62 55.95 55.35 55.96 55.24 55.71 54.9 54.9 54.67 54.35 55.27 54.34 76.94 54.08 98.62 53.91 120.3 53.93 131.14 53.94 141.97 54.03 141.98 54.13 131.14 54.39 120.3 54.57 98.63 54.91 76.95 55.07 55.27 55.15 55.64 54.59 55.98 55.4 55.6 55.16 141.97 54.03 141.98 54.13"/><ellipse class="cls-1" cx="58.01" cy="54.21" rx="2.7" ry="2.46"/><path class="cls-2" d="M116.74,88.12"/><path class="cls-3" d="M63.57,1.21,62.22,1.1C30.45-.7,3.09,21.27,1.11,50.16s22.17,53.78,53.94,55.59c20.57,1.16,39.28-7.64,50.45-21.83"/><path class="cls-2" d="M113.57,71.33"/><text class="cls-4" transform="translate(75.46 70.54) scale(1.1 1)">AK<tspan class="cls-5" x="34.65" y="0">A</tspan></text><ellipse cx="91.12" cy="66.17" rx="0.9" ry="0.82"/><ellipse cx="110.22" cy="65.85" rx="0.9" ry="0.82"/></svg>